# xmcd CD database file
#
# Track frame offsets:
#	150
#	11970
#	24555
#	36441
#	46855
#	59600
#	71463
#	83613
#	96064
#	108712
#	119749
#	133259
#	147450
#	161295
#	174418
#	188111
#	200300
#	212792
#
# Disc length: 3021 seconds
#
# Revision: 6
# Processed by: cddbd v1.5.2PL0 Copyright (c) Steve Scherf et al.
# Submitted via: CDex 1.51
#
DISCID=090bcb12
DTITLE=Count Basie - Vol.03 - Rockin' The Blues
DYEAR=1900
DGENRE=Jazz
TTITLE0=The World Is Mad - Part I
TTITLE1=The World Is Mad - Part II
TTITLE2=Evenin'
TTITLE3=Moten Swing
TTITLE4=It's Torture
TTITLE5=I Want A Little Girl
TTITLE6=All Or Nothing At All
TTITLE7=The Moon Fell In The River
TTITLE8=What's Your Number
TTITLE9=Draftin' Blues
TTITLE10=Five O' Clock Whistle
TTITLE11=Love Jumped Out
TTITLE12=My Wanderin' Man
TTITLE13=Broadway
TTITLE14=It's The Same Old South
TTITLE15=Stampede In G Minor
TTITLE16=Who Am I ¿
TTITLE17=Rockin' The Blues
EXTD=
EXTT0=
EXTT1=
EXTT2=
EXTT3=
EXTT4=
EXTT5=
EXTT6=
EXTT7=
EXTT8=
EXTT9=
EXTT10=
EXTT11=
EXTT12=
EXTT13=
EXTT14=
EXTT15=
EXTT16=
EXTT17=
PLAYORDER=
